subject01_states
version=1
nRows=11
nColumns=61
inDegrees=yes

# SIMM Motion File Header:
name subject01_states
datacolumns 61
datarows 11
otherdata 1
range 0.00000000 0.00607226
endheader
time	/jointset/ground_pelvis/pelvis_list/value	/jointset/ground_pelvis/pelvis_list/speed	/jointset/ground_pelvis/pelvis_rotation/value	/jointset/ground_pelvis/pelvis_rotation/speed	/jointset/ground_pelvis/pelvis_tilt/value	/jointset/ground_pelvis/pelvis_tilt/speed	/jointset/ground_pelvis/pelvis_tx/value	/jointset/ground_pelvis/pelvis_tx/speed	/jointset/ground_pelvis/pelvis_ty/value	/jointset/ground_pelvis/pelvis_ty/speed	/jointset/ground_pelvis/pelvis_tz/value	/jointset/ground_pelvis/pelvis_tz/speed	/jointset/hip_r/hip_adduction_r/value	/jointset/hip_r/hip_adduction_r/speed	/jointset/hip_r/hip_rotation_r/value	/jointset/hip_r/hip_rotation_r/speed	/jointset/hip_r/hip_flexion_r/value	/jointset/hip_r/hip_flexion_r/speed	/jointset/hip_l/hip_adduction_l/value	/jointset/hip_l/hip_adduction_l/speed	/jointset/hip_l/hip_rotation_l/value	/jointset/hip_l/hip_rotation_l/speed	/jointset/hip_l/hip_flexion_l/value	/jointset/hip_l/hip_flexion_l/speed	/jointset/knee_r/knee_flexion_r/value	/jointset/knee_r/knee_flexion_r/speed	/jointset/knee_l/knee_flexion_l/value	/jointset/knee_l/knee_flexion_l/speed	/jointset/ankle_r/ankle_dorsiflexion_r/value	/jointset/ankle_r/ankle_dorsiflexion_r/speed	/jointset/ankle_l/ankle_dorsiflexion_l/value	/jointset/ankle_l/ankle_dorsiflexion_l/speed	/forceset/hamstrings_r/activation	/forceset/hamstrings_r/fiber_length	/forceset/glut_max_r/activation	/forceset/glut_max_r/fiber_length	/forceset/ilipsoas_r/activation	/forceset/ilipsoas_r/fiber_length	/forceset/vasti_r/activation	/forceset/vasti_r/fiber_length	/forceset/gastroc_r/activation	/forceset/gastroc_r/fiber_length	/forceset/soleus_r/activation	/forceset/soleus_r/fiber_length	/forceset/tibia_r/activation	/forceset/tibia_r/fiber_length	/forceset/hamstrings_l/activation	/forceset/hamstrings_l/fiber_length	/forceset/glut_max_l/activation	/forceset/glut_max_l/fiber_length	/forceset/ilipsoas_l/activation	/forceset/ilipsoas_l/fiber_length	/forceset/vasti_l/activation	/forceset/vasti_l/fiber_length	/forceset/gastroc_l/activation	/forceset/gastroc_l/fiber_length	/forceset/soleus_l/activation	/forceset/soleus_l/fiber_length	/forceset/tibia_l/activation	/forceset/tibia_l/fiber_length
      0.00000000	      0.00000000	      0.00000000	      0.00000000	      0.00000000	      0.00000000	      0.00000000	      0.00000000	      0.00000000	      1.20000000	      0.00000000	      0.00000000	      0.00000000	      0.00000000	      0.00000000	      0.00000000	      0.00000000	      0.00000000	      0.00000000	      0.00000000	      0.00000000	      0.00000000	      0.00000000	      0.00000000	      0.00000000	      0.00000000	      0.00000000	      0.00000000	      0.00000000	      0.00000000	      0.00000000	      0.00000000	      0.00000000	      0.05000000	      0.10000000	      0.05000000	      0.10000000	      0.05000000	      0.10000000	      0.05000000	      0.10000000	      0.05000000	      0.10000000	      0.05000000	      0.10000000	      0.05000000	      0.10000000	      0.05000000	      0.10000000	      0.05000000	      0.10000000	      0.05000000	      0.10000000	      0.05000000	      0.10000000	      0.05000000	      0.10000000	      0.05000000	      0.10000000	      0.05000000	      0.10000000
      0.00022321	      0.00000000	      0.00000000	      0.00000000	      0.00000000	     -0.00008717	     -0.72283000	     -0.00000064	     -0.00530496	      1.19999960	     -0.00350686	      0.00000000	      0.00000000	      0.00000343	      0.03170685	      0.00020576	      1.70770808	      0.00039978	      3.35174277	     -0.00000343	     -0.03170685	     -0.00020576	     -1.70770808	      0.00039978	      3.35174277	     -0.00069995	     -5.92761724	     -0.00069995	     -5.92761724	      0.00053244	      4.54377011	      0.00053244	      4.54377011	      0.04983986	      0.10064466	      0.04983986	      0.09994805	      0.04983986	      0.10217138	      0.04983986	      0.09995117	      0.04983986	      0.09879256	      0.04983986	      0.09795450	      0.04983986	      0.09995113	      0.04983986	      0.10064466	      0.04983986	      0.09994805	      0.04983986	      0.10217138	      0.04983986	      0.09995117	      0.04983986	      0.09879256	      0.04983986	      0.09795450	      0.04983986	      0.09995113
      0.00044607	     -0.00000000	      0.00000000	      0.00000000	     -0.00000000	     -0.00030118	     -1.15982330	     -0.00000222	     -0.00861888	      1.19999847	     -0.00649576	     -0.00000000	      0.00000000	      0.00001443	      0.06749224	      0.00071214	      2.74833004	      0.00141034	      5.56540412	     -0.00001443	     -0.06749224	     -0.00071214	     -2.74833004	      0.00141034	      5.56540412	     -0.00251614	    -10.14046495	     -0.00251614	    -10.14046495	      0.00194143	      7.94560168	      0.00194143	      7.94560168	      0.04968055	      0.10119414	      0.04968055	      0.09989637	      0.04968055	      0.10363557	      0.04968055	      0.09990250	      0.04968055	      0.09766111	      0.04968055	      0.09603830	      0.04968055	      0.09990254	      0.04968055	      0.10119414	      0.04968055	      0.09989637	      0.04968055	      0.10363557	      0.04968055	      0.09990250	      0.04968055	      0.09766111	      0.04968055	      0.09603830	      0.04968055	      0.09990254
      0.00066892	      0.00000000	      0.00000000	     -0.00000000	     -0.00000000	     -0.00059115	     -1.42084791	     -0.00000439	     -0.01069913	      1.19999673	     -0.00916752	     -0.00000000	     -0.00000000	      0.00003360	      0.10454120	      0.00140041	      3.37767780	      0.00282766	      7.06453352	     -0.00003360	     -0.10454120	     -0.00140041	     -3.37767780	      0.00282766	      7.06453352	     -0.00513835	    -13.25096867	     -0.00513835	    -13.25096867	      0.00401839	     10.59547851	      0.00401839	     10.59547851	      0.04952181	      0.10166806	      0.04952181	      0.09984487	      0.04952181	      0.10464894	      0.04952181	      0.09985393	      0.04952181	      0.09659875	      0.04952181	      0.09424031	      0.04952181	      0.09985413	      0.04952181	      0.10166806	      0.04952181	      0.09984487	      0.04952181	      0.10464894	      0.04952181	      0.09985393	      0.04952181	      0.09659875	      0.04952181	      0.09424031	      0.04952181	      0.09985413
      0.00089178	      0.00000000	      0.00000000	     -0.00000000	     -0.00000000	     -0.00092699	     -1.57953859	     -0.00000693	     -0.01205409	      1.19999440	     -0.01165441	     -0.00000000	     -0.00000000	      0.00006099	      0.14109509	      0.00220010	      3.76725654	      0.00452768	      8.13432903	     -0.00006099	     -0.14109509	     -0.00220010	     -3.76725654	      0.00452768	      8.13432903	     -0.00837190	    -15.67405208	     -0.00837190	    -15.67405208	      0.00662832	     12.75952077	      0.00662832	     12.75952077	      0.04936365	      0.10208133	      0.04936365	      0.09979356	      0.04936365	      0.10538448	      0.04936365	      0.09980545	      0.04936365	      0.09560074	      0.04936365	      0.09255323	      0.04936365	      0.09980591	      0.04936365	      0.10208133	      0.04936365	      0.09979356	      0.04936365	      0.10538448	      0.04936365	      0.09980545	      0.04936365	      0.09560074	      0.04936365	      0.09255323	      0.04936365	      0.09980591
      0.00130771	      0.00000000	      0.00000000	     -0.00000000	     -0.00000000	     -0.00161786	     -1.71685090	     -0.00001227	     -0.01344152	      1.19998864	     -0.01600804	     -0.00000000	     -0.00000000	      0.00013338	      0.20614539	      0.00385315	      4.12097460	      0.00820601	      9.43732478	     -0.00013338	     -0.20614539	     -0.00385315	     -4.12097460	      0.00820601	      9.43732478	     -0.01563221	    -19.03810457	     -0.01563221	    -19.03810457	      0.01262977	     15.94872222	      0.01262977	     15.94872222	      0.04906998	      0.10272582	      0.04906998	      0.09969829	      0.04906998	      0.10629516	      0.04906998	      0.09971523	      0.04906998	      0.09389458	      0.04906998	      0.08967795	      0.04906998	      0.09971640	      0.04906998	      0.10272582	      0.04906998	      0.09969829	      0.04906998	      0.10629516	      0.04906998	      0.09971523	      0.04906998	      0.09389458	      0.04906998	      0.08967795	      0.04906998	      0.09971640
      0.00179373	      0.00000000	     -0.00000000	     -0.00000000	     -0.00000000	     -0.00246476	     -1.75498790	     -0.00001901	     -0.01415268	      1.19997967	     -0.02087197	      0.00000000	      0.00000000	      0.00025060	      0.27485390	      0.00589372	      4.24446085	      0.01303672	     10.37099501	     -0.00025060	     -0.27485390	     -0.00589372	     -4.24446085	      0.01303672	     10.37099501	     -0.02561259	    -21.89300086	     -0.02561259	    -21.89300086	      0.02110889	     18.82823582	      0.02110889	     18.82823582	      0.04872933	      0.10331593	      0.04872933	      0.09958778	      0.04872933	      0.10694116	      0.04872933	      0.09961022	      0.04872933	      0.09212787	      0.04872933	      0.08672374	      0.04872933	      0.09961259	      0.04872933	      0.10331593	      0.04872933	      0.09958778	      0.04872933	      0.10694116	      0.04872933	      0.09961022	      0.04872933	      0.09212787	      0.04872933	      0.08672374	      0.04872933	      0.09961259
      0.00227974	     -0.00000000	     -0.00000000	     -0.00000000	     -0.00000000	     -0.00331542	     -1.73955173	     -0.00002596	     -0.01443455	      1.19996837	     -0.02563648	      0.00000000	      0.00000000	      0.00039924	      0.33559630	      0.00795873	      4.23868393	      0.01823770	     10.99292000	     -0.00039924	     -0.33559630	     -0.00795873	     -4.23868393	      0.01823770	     10.99292000	     -0.03680905	    -24.09584176	     -0.03680905	    -24.09584176	      0.03084174	     21.14735720	      0.03084174	     21.14735720	      0.04839134	      0.10377679	      0.04839134	      0.09947813	      0.04839134	      0.10734928	      0.04839134	      0.09950565	      0.04839134	      0.09056835	      0.04839134	      0.08415255	      0.04839134	      0.09950958	      0.04839134	      0.10377679	      0.04839134	      0.09947813	      0.04839134	      0.10734928	      0.04839134	      0.09950565	      0.04839134	      0.09056835	      0.04839134	      0.08415255	      0.04839134	      0.09950958
      0.00321836	     -0.00000000	     -0.00000000	     -0.00000000	     -0.00000000	     -0.00491098	     -1.65404178	     -0.00003956	     -0.01447001	      1.19994003	     -0.03473140	      0.00000000	      0.00000000	      0.00076248	      0.43491337	      0.01187435	      4.08842790	      0.02894640	     11.76013446	     -0.00076248	     -0.43491337	     -0.01187435	     -4.08842790	      0.02894640	     11.76013446	     -0.06101205	    -27.30344387	     -0.06101205	    -27.30344387	      0.05241608	     24.65667014	      0.05241608	     24.65667014	      0.04774604	      0.10441237	      0.04774604	      0.09926879	      0.04774604	      0.10778649	      0.04774604	      0.09930495	      0.04774604	      0.08802276	      0.04774604	      0.08009069	      0.04774604	      0.09931282	      0.04774604	      0.10441237	      0.04774604	      0.09926879	      0.04774604	      0.10778649	      0.04774604	      0.09930495	      0.04774604	      0.08802276	      0.04774604	      0.08009069	      0.04774604	      0.09931282
      0.00464531	     -0.00000000	     -0.00000000	     -0.00000000	      0.00000000	     -0.00716688	     -1.51073142	     -0.00006005	     -0.01423196	      1.19988063	     -0.04852414	      0.00000000	      0.00000000	      0.00147233	      0.55515345	      0.01750930	      3.81398975	      0.04630304	     12.52399731	     -0.00147233	     -0.55515345	     -0.01750930	     -3.81398975	      0.04630304	     12.52399731	     -0.10267520	    -30.92596507	     -0.10267520	    -30.92596507	      0.09061716	     28.70471316	      0.09061716	     28.70471316	      0.04678349	      0.10499235	      0.04678349	      0.09895657	      0.04678349	      0.10806826	      0.04678349	      0.09900296	      0.04678349	      0.08500417	      0.04678349	      0.07561898	      0.04678349	      0.09901879	      0.04678349	      0.10499235	      0.04678349	      0.09895657	      0.04678349	      0.10806826	      0.04678349	      0.09900296	      0.04678349	      0.08500417	      0.04678349	      0.07561898	      0.04678349	      0.09901879
      0.00607226	     -0.00000000	     -0.00000000	      0.00000000	      0.00000000	     -0.00923596	     -1.39396856	     -0.00008021	     -0.01403853	      1.19980153	     -0.06235863	      0.00000000	      0.00000000	      0.00233646	      0.65323378	      0.02278576	      3.59113482	      0.06462747	     13.14752212	     -0.00233646	     -0.65323378	     -0.02278576	     -3.59113482	      0.06462747	     13.14752212	     -0.14896658	    -33.88124659	     -0.14896658	    -33.88124659	      0.13398235	     31.98544753	      0.13398235	     31.98544753	      0.04584267	      0.10532556	      0.04584267	      0.09865148	      0.04584267	      0.10818676	      0.04584267	      0.09870474	      0.04584267	      0.08267988	      0.04584267	      0.07247477	      0.04584267	      0.09873025	      0.04584267	      0.10532556	      0.04584267	      0.09865148	      0.04584267	      0.10818676	      0.04584267	      0.09870474	      0.04584267	      0.08267988	      0.04584267	      0.07247477	      0.04584267	      0.09873025
